<?xml version="1.0" encoding="utf-8"?>
<!-- Generator: Adobe Illustrator 25.0.1, SVG Export Plug-In . SVG Version: 6.00 Build 0)  -->
<svg version="1.1" id="Layer_1" xmlns="http://www.w3.org/2000/svg" xmlns:xlink="http://www.w3.org/1999/xlink" x="0px" y="0px"
	 viewBox="0 0 100 125" style="enable-background:new 0 0 100 125;" xml:space="preserve">
<style type="text/css">
	.st0{fill:#326EBE;}
</style>
<path class="st0" d="M55.8,52.3v-3c0.9-1.1,1.5-2.4,1.8-3.8l4.9-32.7c0.1-1,0.1-2,0.1-3c-1-4.8-7.3-8.3-15.2-8.3S33.2,4.9,32.2,9.7
	c0,1,0,2,0.1,3l4.9,32.7c0.3,1.4,0.9,2.7,1.8,3.8v3c-10.5,4.9-15.1,17.5-10.1,28c0.8,1.7,1.8,3.3,3,4.7v5.3l0,0
	c0.3,3.9,2.1,7.6,5,10.3l1.6,16.3v0.3v0.7h0.1c1.1,2.6,4.5,4.5,8.8,4.5s7.8-1.9,8.7-4.5h0.1v-0.7v-0.3l1.6-16.3
	c2.9-2.7,4.7-6.4,5-10.3l0,0V85c7.5-8.8,6.5-22.1-2.4-29.7c-1.4-1.2-3-2.2-4.7-3L55.8,52.3z M60.2,88.9c0,0.4,0,0.9-0.1,1.3
	c-0.3,3.2-1.8,6.1-4.1,8.3c-0.5,0.5-1.1,0.9-1.7,1.3c-0.8,0.6-1.7,1-2.7,1.3c-2.7,1-5.7,1-8.4,0c-0.9-0.3-1.8-0.8-2.7-1.3
	c-0.6-0.4-1.2-0.8-1.7-1.3c-2.3-2.2-3.8-5.1-4.1-8.3c0-0.4-0.1-0.9-0.1-1.3l0,0c0-0.4,0-0.8,0-1.3c0,0,0,0,0-0.1
	c0.1-1,0.3-1.9,0.7-2.9c2.2-6.7,9.3-10.3,16-8.2c3.9,1.3,6.9,4.3,8.2,8.2c0.3,0.9,0.5,1.9,0.6,2.9c0,0,0,0,0,0.1
	C60.1,88.2,60.1,88.6,60.2,88.9L60.2,88.9z M53,117.9c-1.6,1.3-3.6,1.9-5.6,1.8c-2,0.1-4-0.5-5.6-1.8c-0.4-0.3-0.6-0.8-0.7-1.3l0,0
	c0-0.5,0.3-1,0.7-1.3c1.6-1.3,3.5-1.9,5.5-1.8c2-0.1,4,0.5,5.6,1.8c0.4,0.3,0.6,0.8,0.7,1.3l0,0C53.6,117.1,53.3,117.6,53,117.9
	L53,117.9z M54,112.6c-4-2.5-9.2-2.5-13.2,0l-0.9-9.9c4.7,2.7,10.4,2.7,15.1,0L54,112.6z M39,55.3v6c-4.4,2.9-7.1,7.9-7.1,13.2v5.8
	C26.9,71.5,30.1,60.3,39,55.3L39,55.3z M34.9,9.7c1.2-3.2,6.4-5.6,12.5-5.6s11.3,2.5,12.4,5.6c0.2,0.4,0.3,0.9,0.3,1.3l0,0
	c0,0.5-0.1,0.9-0.3,1.3c-1.2,3.2-6.4,5.6-12.4,5.6S36.1,15.5,35,12.4c-0.2-0.4-0.3-0.9-0.3-1.3l0,0C34.7,10.6,34.8,10.1,34.9,9.7
	L34.9,9.7z M47.4,20.7c4.2,0.1,8.3-1,11.7-3.4L55,45.1v0.2c-0.1,0.7-0.4,1.4-0.9,1.8c-0.3,0.3-0.7,0.6-1.1,0.8
	c-0.5,0.3-1,0.5-1.5,0.7c-2.6,0.9-5.4,0.9-8.1,0c-0.5-0.2-1-0.4-1.5-0.7c-0.4-0.2-0.8-0.5-1.1-0.8c-0.5-0.5-0.9-1.1-0.9-1.8l-4.1-28
	C39.1,19.7,43.2,20.8,47.4,20.7z M60.2,80.1C55.6,73,46,71,38.9,75.7c-1.7,1.1-3.2,2.6-4.4,4.4v-5.6c0-3.8,1.6-7.3,4.4-9.8v0.9
	c0,3.1,3.7,5.5,8.4,5.5s8.4-2.4,8.4-5.5v-0.9c2.8,2.5,4.4,6.1,4.4,9.8V80.1z M41.7,50.9l0.6,0.2c1.1,0.4,2.3,0.7,3.5,0.8
	c0.5,0,1,0.1,1.5,0.1s1,0,1.5-0.1c1.2-0.1,2.4-0.3,3.5-0.7l0.6-0.2c0,0.1-0.1,0.3-0.1,0.4c-0.2,0.3-0.4,0.5-0.6,0.7
	c-0.2,0.1-0.3,0.3-0.5,0.4c-0.8,0.5-1.6,0.8-2.5,0.9c-1.3,0.3-2.7,0.3-4,0c-0.9-0.2-1.7-0.5-2.5-0.9c-0.2-0.1-0.4-0.2-0.5-0.4
	c-0.2-0.2-0.4-0.4-0.6-0.7C41.7,51.1,41.7,51,41.7,50.9z M41.7,54.7c3.6,1.9,7.9,1.9,11.5,0v10.9c0,1.3-2.5,2.9-5.7,2.9
	c-3.3,0-5.7-1.5-5.7-2.9C41.7,65.6,41.7,54.7,41.7,54.7z M55.8,61.3v-6c8.9,4.9,12,16.1,7.1,25v-5.8C62.9,69.2,60.3,64.2,55.8,61.3
	L55.8,61.3z"/>
</svg>
