<?xml version="1.0" encoding="utf-8"?>
<!-- Generator: Adobe Illustrator 25.0.1, SVG Export Plug-In . SVG Version: 6.00 Build 0)  -->
<svg version="1.1" id="Layer_1" xmlns="http://www.w3.org/2000/svg" xmlns:xlink="http://www.w3.org/1999/xlink" x="0px" y="0px"
	 viewBox="0 0 83.1 81.7" style="enable-background:new 0 0 83.1 81.7;" xml:space="preserve">
<style type="text/css">
	.st0{fill:#326EBE;}
</style>
<g>
	<path class="st0" d="M50,78.3h17c1.9,0,3.5-1.6,3.5-3.5V43.3h6.2c1.5,0,2.7-0.9,3.3-2.2c0.5-1.4,0.2-2.9-0.9-3.9L42.9,3.8
		c-1.3-1.2-3.4-1.2-4.8,0L1.9,37.2c-1.1,1-1.4,2.5-0.9,3.9s1.8,2.2,3.3,2.2h6.2v31.5c0,1.9,1.6,3.5,3.5,3.5h17
		c1.9,0,3.5-1.6,3.5-3.5V53.4h12v21.4C46.5,76.7,48.1,78.3,50,78.3z M34,49.4c-1.9,0-3.5,1.6-3.5,3.5v21.4h-16V42.8
		c0-1.9-1.6-3.5-3.5-3.5H5.5L40.5,7l35,32.3H70c-1.9,0-3.5,1.6-3.5,3.5v31.5h-16V52.9c0-1.9-1.6-3.5-3.5-3.5H34z"/>
</g>
</svg>
