<?xml version="1.0" encoding="utf-8"?>
<!-- Generator: Adobe Illustrator 25.0.1, SVG Export Plug-In . SVG Version: 6.00 Build 0)  -->
<svg version="1.1" id="e951be26-af6e-4657-9475-8950c40c5c3d"
	 xmlns="http://www.w3.org/2000/svg" xmlns:xlink="http://www.w3.org/1999/xlink" x="0px" y="0px" viewBox="0 0 427 512"
	 style="enable-background:new 0 0 427 512;" xml:space="preserve">
<style type="text/css">
	.st0{fill:#FFFFFF;}
	.st1{fill:#ABCBEF;}
</style>
<path class="st0" d="M281.8,40.9H145.2c-8.3,0-15.1,6.8-15.1,15.1v18c0,18.3,14.8,33.1,33.1,33.1h100.5c18.3,0,33.1-14.8,33.1-33.1
	V56C296.8,47.7,290.1,40.9,281.8,40.9L281.8,40.9z M276.8,74c0,7.2-5.9,13.1-13.1,13.1H163.3c-7.2,0-13.1-5.9-13.1-13.1V60.9h126.7
	V74z"/>
<path class="st1" d="M427,322.9c0-13.1-8.3-24.8-20.7-29v-41.8c16-5.5,24.6-23,19.1-39c-3.1-9-10.1-16-19.1-19.1V29.7
	C406.2,13.3,393,0,376.6,0H50.4C34,0,20.8,13.3,20.7,29.7V194c-16,5.5-24.6,23-19.1,39c3.1,9,10.1,16,19.1,19.1v41.8
	c-16,5.5-24.6,23-19.1,39c3.1,9,10.1,16,19.1,19.1v41.8c-16,5.5-24.6,23-19.1,39c3.1,9,10.1,16,19.1,19.1v30.5
	c0,16.4,13.3,29.7,29.7,29.7h326.2c16.4,0,29.7-13.3,29.7-29.7v-30.5c16-5.5,24.6-23,19.1-39c-3.1-9-10.1-16-19.1-19.1V352
	C418.7,347.7,427,336,427,322.9z M40.7,29.7c0-5.3,4.3-9.7,9.7-9.7h326.2c5.3,0,9.7,4.3,9.7,9.7v104.2H40.7V29.7z M40.7,153.8h345.5
	v38.4H40.7V153.8z M20,223c0-5.9,4.8-10.7,10.7-10.7h365.5c5.9,0,10.7,4.8,10.7,10.7c0,5.9-4.8,10.7-10.7,10.7H30.7
	C24.8,233.7,20,228.9,20,223z M386.3,482.3c0,5.3-4.3,9.7-9.7,9.7H50.4c-5.3,0-9.7-4.3-9.7-9.7v-28.8h345.5L386.3,482.3L386.3,482.3
	z M407,422.8c0,5.9-4.8,10.7-10.7,10.7H30.7c-5.9,0-10.7-4.8-10.7-10.7c0-5.9,4.8-10.7,10.7-10.7h365.5
	C402.2,412.1,407,416.9,407,422.8z M40.7,392.1v-38.4h345.5v38.4H40.7z M396.3,333.6H30.7c-5.9,0-10.7-4.8-10.7-10.7
	s4.8-10.7,10.7-10.7c0,0,0,0,0,0h137.9c5.5,0,10-4.5,10-10s-4.5-10-10-10H40.7v-38.4h345.5v38.4H258.4c-5.5,0-10,4.5-10,10
	s4.5,10,10,10h137.8c5.9,0,10.8,4.7,10.8,10.6s-4.7,10.8-10.6,10.8C396.4,333.6,396.3,333.6,396.3,333.6z"/>
<path class="st0" d="M213.5,292.2c-5.5,0-10,4.5-10,10s4.5,10,10,10h0c5.5,0,10-4.5,10-10C223.5,296.7,219,292.2,213.5,292.2z"/>
</svg>
