<?xml version="1.0" encoding="utf-8"?>
<!-- Generator: Adobe Illustrator 25.0.1, SVG Export Plug-In . SVG Version: 6.00 Build 0)  -->
<svg version="1.1" id="Layer_1" xmlns="http://www.w3.org/2000/svg" xmlns:xlink="http://www.w3.org/1999/xlink" x="0px" y="0px"
	 viewBox="0 0 64 63.9" style="enable-background:new 0 0 64 63.9;" xml:space="preserve">
<style type="text/css">
	.st0{fill:#326EBE;}
</style>
<g>
	<path class="st0" d="M60.2,26.2l-7.9-1.1c-0.3-0.9-0.6-1.7-1.1-2.6l4.8-6.4c0.5-0.6,0.4-1.5-0.1-2l-6.1-6.1c-0.5-0.6-1.4-0.6-2-0.1
		l-6.3,4.8c-0.8-0.4-1.7-0.8-2.5-1.1l-1.1-7.9c-0.1-0.7-0.7-1.3-1.5-1.3h-8.7c-0.7,0-1.4,0.6-1.5,1.3l-1.1,7.9
		c-0.9,0.3-1.7,0.7-2.5,1.1l-6.4-4.8c-0.6-0.5-1.5-0.4-2,0.1l-6.1,6.1c-0.6,0.5-0.6,1.4-0.1,2l4.8,6.4c-0.4,0.8-0.8,1.7-1.1,2.6
		l-7.9,1.1c-0.7,0.1-1.3,0.7-1.3,1.5v8.7c0,0.7,0.6,1.4,1.3,1.5l7.9,1.1c0.3,0.9,0.6,1.7,1.1,2.6l-4.8,6.3c-0.5,0.6-0.4,1.5,0.1,2
		l6.1,6.1c0.5,0.6,1.4,0.6,2,0.1l6.4-4.8c0.8,0.4,1.7,0.8,2.5,1.1l1.1,7.9c0.1,0.7,0.7,1.3,1.5,1.3h8.7c0.7,0,1.4-0.6,1.5-1.3
		l1.1-7.9c0.9-0.3,1.7-0.7,2.5-1.1l6.3,4.8c0.6,0.5,1.5,0.4,2-0.1l6.1-6.1c0.6-0.5,0.6-1.4,0.1-2l-4.8-6.3c0.4-0.8,0.8-1.7,1.1-2.6
		l7.9-1.1c0.7-0.1,1.3-0.7,1.3-1.5v-8.7C61.6,26.9,61,26.2,60.2,26.2z M21.7,32c0.6-13.7,20.1-13.7,20.7,0
		C41.8,45.7,22.2,45.7,21.7,32z"/>
</g>
</svg>
