<?xml version="1.0" encoding="utf-8"?>
<!-- Generator: Adobe Illustrator 25.0.1, SVG Export Plug-In . SVG Version: 6.00 Build 0)  -->
<svg version="1.1" id="Layer_1" xmlns="http://www.w3.org/2000/svg" xmlns:xlink="http://www.w3.org/1999/xlink" x="0px" y="0px"
	 viewBox="0 0 884.4 894.6" style="enable-background:new 0 0 884.4 894.6;" xml:space="preserve">
<style type="text/css">
	.st0{fill:#326EBE;}
</style>
<g>
	<path class="st0" d="M491.2,878.8h-93.3c-29.1,0-52.7-23.6-52.7-52.7V798c0-5.5-3.5-10.4-8.8-12h-0.1
		c-18.1-5.9-35.5-13.1-51.7-21.4c-5-2.6-11-1.7-14.9,2.2l-19.9,19.9c-10,10-23.2,15.5-37.3,15.5s-27.3-5.5-37.3-15.5l-65.9-65.9
		c-20.6-20.6-20.6-54,0-74.6l19.9-19.9c3.9-3.9,4.8-9.9,2.2-14.9c-8.6-16.8-15.8-34.2-21.4-51.8c-1.7-5.3-6.6-8.9-12.1-8.9H69.8
		c-29.1,0-52.7-23.6-52.7-52.7v-93.3c0-29.1,23.6-52.7,52.7-52.7h28.1c5.5,0,10.4-3.5,12-8.8v-0.1c5.9-18.1,13.1-35.5,21.4-51.7
		c2.6-5,1.7-11-2.2-14.9l-19.9-19.9c-20.6-20.6-20.6-54,0-74.6l65.9-65.9c20.6-20.6,54-20.6,74.6,0l19.9,19.9
		c3.9,3.9,9.9,4.8,14.9,2.2c16.8-8.6,34.2-15.8,51.7-21.4c5.3-1.7,8.9-6.6,8.9-12.1V76.6c0-29.1,23.6-52.7,52.7-52.7h93.3
		c29.1,0,52.7,23.6,52.7,52.7v28.1c0,5.5,3.5,10.4,8.8,12h0.1c18.1,5.9,35.5,13.1,51.7,21.4c5,2.6,11,1.7,14.9-2.2l19.9-19.9
		c20.6-20.6,54-20.6,74.6,0l65.9,65.9c10,10,15.5,23.2,15.5,37.3s-5.5,27.3-15.5,37.3l-19.9,20c-3.9,3.9-4.8,10-2.3,15
		c8.6,16.8,15.8,34.2,21.4,51.8c1.7,5.3,6.6,8.9,12.1,8.9h28.1c29.1,0,52.7,23.6,52.7,52.7v93.3c0,29.1-23.6,52.7-52.7,52.7H791
		c-5.5,0-10.4,3.6-12.1,8.9l0,0c-5.9,18.1-13.1,35.5-21.4,51.7c-2.6,5-1.7,11,2.2,14.9l19.9,19.9c10,10,15.5,23.2,15.5,37.3
		s-5.5,27.3-15.5,37.3l-65.9,65.9c-20.6,20.6-54,20.6-74.6,0l-19.9-20c-3.9-3.9-9.9-4.8-14.9-2.2c-16.8,8.6-34.2,15.8-51.8,21.4
		c-5.3,1.7-8.9,6.6-8.9,12.1v28.1C543.9,855.2,520.3,878.8,491.2,878.8z M348.6,747.9c21.9,7,36.6,27.1,36.6,50.1v28.1
		c0,7,5.7,12.7,12.7,12.7h93.3c7,0,12.7-5.7,12.7-12.7V798c0-22.9,14.7-43,36.5-50.1h0.1c15.5-5,30.9-11.3,45.8-18.9
		c20.5-10.5,45.2-6.7,61.5,9.6l19.9,20c4.9,4.9,13,4.9,18,0l65.9-65.9c2.4-2.4,3.7-5.6,3.7-9s-1.3-6.6-3.7-9l-19.9-19.9
		c-16.2-16.2-20.1-40.9-9.6-61.5c7.4-14.4,13.7-29.8,19-45.9c7.1-21.9,27.2-36.5,50.1-36.5h28.1c7,0,12.7-5.7,12.7-12.7v-93.3
		c0-7-5.7-12.7-12.7-12.7h-28.1c-22.9,0-43-14.7-50.1-36.5v-0.1c-5-15.5-11.3-30.9-18.9-45.8c-10.5-20.5-6.7-45.2,9.6-61.5l19.9-20
		c2.4-2.4,3.8-5.6,3.8-9s-1.3-6.6-3.7-9l-65.9-65.9c-5-5-13-5-18,0L648,164.3c-16.2,16.2-40.9,20.1-61.5,9.6
		c-14.4-7.4-29.8-13.7-45.8-19c-21.9-7-36.6-27.1-36.6-50.1V76.7c0-7-5.7-12.7-12.7-12.7h-93.3c-7,0-12.7,5.7-12.7,12.7v28.1
		c0,22.9-14.7,43-36.5,50.1h-0.1c-15.5,5-30.9,11.3-45.8,18.9c-20.5,10.5-45.2,6.7-61.5-9.6l-19.9-19.9c-5-5-13-5-18,0l-65.9,65.9
		c-5,5-5,13,0,18l19.9,19.9c16.2,16.2,20.1,40.9,9.6,61.5c-7.4,14.3-13.7,29.8-19,45.8c-7,21.9-27.1,36.6-50.1,36.6H70
		c-7,0-12.7,5.7-12.7,12.7V498c0,7,5.7,12.7,12.7,12.7h28.1c22.9,0,43,14.7,50.1,36.5v0.1c5,15.5,11.3,30.9,18.9,45.8
		c10.5,20.5,6.7,45.2-9.6,61.5l-20,19.8c-5,5-5,13,0,18l65.9,65.9c2.4,2.4,5.6,3.7,9,3.7s6.6-1.3,9-3.7l19.9-19.9
		c16.2-16.2,40.9-20.1,61.5-9.6C317.2,736.3,332.6,742.6,348.6,747.9z"/>
	<path class="st0" d="M444.6,632.9c-100.1,0-181.5-81.4-181.5-181.5s81.4-181.5,181.5-181.5s181.5,81.4,181.5,181.5
		S544.7,632.9,444.6,632.9z M444.6,309.9c-78,0-141.5,63.5-141.5,141.5s63.5,141.5,141.5,141.5s141.5-63.5,141.5-141.5
		S522.6,309.9,444.6,309.9z"/>
</g>
</svg>
