<?xml version="1.0" encoding="utf-8"?>
<!-- Generator: Adobe Illustrator 25.0.1, SVG Export Plug-In . SVG Version: 6.00 Build 0)  -->
<svg version="1.1" id="Layer_1" xmlns="http://www.w3.org/2000/svg" xmlns:xlink="http://www.w3.org/1999/xlink" x="0px" y="0px"
	 viewBox="0 0 84.9 83.9" style="enable-background:new 0 0 84.9 83.9;" xml:space="preserve">
<style type="text/css">
	.st0{fill:#326EBE;}
</style>
<g>
	<path class="st0" d="M26.1,31c-4.9,0-9.3,3.3-10.6,8H3.1v6h12.4c1.6,5.9,7.7,9.3,13.5,7.7c3.7-1,6.6-3.9,7.7-7.7h45.4v-6H36.7
		C35.3,34.2,31,31,26.1,31z M26.1,47c-2.8,0-5-2.2-5-5s2.2-5,5-5s5,2.2,5,5S28.8,47,26.1,47z"/>
	<path class="st0" d="M59.1,3.5c-4.9,0-9.3,3.3-10.6,8H3.1v6h45.4c1.6,5.9,7.7,9.3,13.5,7.7c3.7-1,6.6-3.9,7.7-7.7h12.4v-6H69.7
		C68.3,6.7,64,3.5,59.1,3.5z M59.1,19.5c-2.8,0-5-2.2-5-5s2.2-5,5-5c2.8,0,5,2.2,5,5S61.8,19.5,59.1,19.5z"/>
	<path class="st0" d="M59.1,58.5c-4.9,0-9.3,3.3-10.6,8H3.1v6h45.4c1.6,5.9,7.7,9.3,13.5,7.7c3.7-1,6.6-3.9,7.7-7.7h12.4v-6H69.7
		C68.3,61.7,64,58.5,59.1,58.5z M59.1,74.5c-2.8,0-5-2.2-5-5s2.2-5,5-5c2.8,0,5,2.2,5,5S61.8,74.5,59.1,74.5z"/>
</g>
</svg>
