<?xml version="1.0" encoding="utf-8"?>
<!-- Generator: Adobe Illustrator 25.0.1, SVG Export Plug-In . SVG Version: 6.00 Build 0)  -->
<svg version="1.1" id="Layer_1" xmlns="http://www.w3.org/2000/svg" xmlns:xlink="http://www.w3.org/1999/xlink" x="0px" y="0px"
	 viewBox="0 0 150 124" style="enable-background:new 0 0 150 124;" xml:space="preserve">
<style type="text/css">
	.st0{fill:#326EBE;}
</style>
<path class="st0" d="M26.6,60.2c3.3,0,6-2.7,6-6c0-3.3-2.7-6-6-6c-3.3,0-6,2.7-6,6C20.6,57.5,23.3,60.2,26.6,60.2z M33.7,82
	c-3,0-5.5-2.4-5.5-5.5c0-0.1,0-0.3,0-0.4c0-0.3,0-0.4,0-0.7L30.9,62h-12c-1.4,0-2.5,0.8-2.8,2.2L11,78.7c0,0.1,0,0.2,0,0.3
	c0,0.1,0,0.2,0,0.4c0,1.6,1.3,2.8,2.8,2.8c1.4,0,2.7-1,3-2.3L21,69V69l-5.1,19.2c-0.4,1.5,0.4,2.8,1.9,2.8h2.8l0,12.8
	c0,1.5,1.4,2.8,2.9,2.8c1,0,1.5-0.6,2.5-1.5V91h1v13.8c1,1,1.5,1.7,2.6,1.7c1.5,0,2.8-1.2,2.8-2.7l0-12.8h2.8c0.4,0,0.7-0.1,1-0.3
	l0-6.8l-0.6-2.3C35.1,81.9,34.4,82,33.7,82z M51,82.6l0.8-3.1l0-1.6c-0.3,0.1-0.6,0.1-0.9,0.1c-3.3,0-5.9-2.6-5.9-5.9
	c0-0.1,0-0.3,0-0.4c0-0.3,0-0.7,0-1l0-0.1L49.7,57h-13c-1.5,0-2.8,1.1-3,2.6l-3,16.2c0,0.1,0,0.3,0,0.4c0,0.2,0,0.3,0,0.4
	c0,1.7,1.4,3.1,3.1,3.1c1.5,0,2.8-1.1,3-2.6l1.9-12l0,38.2c0,1.7,1.7,3.1,3.4,3.1c1.1,0,2-0.6,3-1.5V84.1c0-0.4,0.1-0.7,0.5-0.7
	c0.4,0,0.5,0.3,0.5,0.7v20.5c0,1.1,1.5,1.8,2.7,1.8c1.7,0,3.1-1.4,3.1-3.1l0-16.4C50.9,85.7,50.6,84.1,51,82.6z M45.2,55.4
	c3.7,0,6.6-3,6.6-6.6c0-3.7-3-6.6-6.6-6.6c-3.7,0-6.6,3-6.6,6.6C38.6,52.5,41.5,55.4,45.2,55.4z M74.6,74.8c-3.5,0-6.3-2.8-6.3-6.3
	c0-0.2,0-0.3,0-0.5c0-0.3,0-0.5,0-0.8L71.7,50H57.2c-1.7,0-3.2,1.1-3.5,2.8l-6.4,18.4c0,0.2,0,0.3,0,0.4c0,0.2,0,0.3,0,0.5
	c0,2,1.6,3.5,3.5,3.5c1.7,0,3.5-1.2,3.8-2.9L60,58.9V59l-6.4,24.3C53.1,85.2,54,87,55.9,87h3.5l0,15.9c0,1.9,1.6,3.4,3.6,3.4
	c1.3,0,2.1-0.8,3.1-1.9V87h2v17.1c0,1.2,1.6,2.1,3,2.1c1.9,0,3.4-1.3,3.4-3.3L74.4,87h3.6c0.2,0,0.4-0.2,0.5-0.2l0-11.7l-0.3-1.3
	C77.1,74.4,75.9,74.8,74.6,74.8z M66.9,47.9c2.3,0,4.4-1,5.8-2.7c0.3-0.6,0.6-1.1,1-1.6c0.5-1,0.8-2.1,0.8-3.3
	c0-4.2-3.4-7.6-7.6-7.6c-4.2,0-7.6,3.4-7.6,7.6C59.3,44.5,62.7,47.9,66.9,47.9z M89.1,41.9c4.6,0,8.3-3.7,8.3-8.3
	c0-4.6-3.7-8.3-8.3-8.3c-4.6,0-8.3,3.7-8.3,8.3C80.7,38.1,84.5,41.9,89.1,41.9z M97,76.2l0.3-1.3l0-5.3c-0.4,0.1-0.7,0.1-1.1,0.1
	c-3.8,0-6.8-3.1-6.8-6.8c0-0.2,0-0.4,0-0.5c0-0.4,0-0.8,0-1.1l0-0.1L95.4,44H78.4c-1.9,0-3.5,1.3-3.8,3.2l-3.8,20.3
	c0,0.2,0,0.3,0,0.5c0,0.2,0,0.4,0,0.5c0,2.2,1.8,3.9,3.9,3.9c1.9,0,3.5-1.3,3.8-3.2l2.4-15.1l0,48.2c0,2.2,1.7,3.9,3.9,3.9
	c1.4,0,3.3-0.8,3.3-2V78c0-0.5,0.5-0.9,1-0.9s1,0.4,1,0.9v25.9c1,1.4,1.9,2.3,3.5,2.3c2.1,0,3.9-1.8,3.9-3.9l0-22
	C96.8,79.1,96.6,77.6,97,76.2z M116.4,32.5c5.2,0,9.5-4.3,9.5-9.5c0-5.2-4.3-9.5-9.5-9.5c-5.2,0-9.5,4.3-9.5,9.5
	C106.9,28.3,111.2,32.5,116.4,32.5z M141,61.7l-8-23.1c-0.3-2.2-2.2-3.7-4.4-3.7h-24.4c-2.2,0-4,1.5-4.4,3.6l-8,23.1
	c0,0.2,0,0.3,0,0.5c0,0.2,0,0.4,0,0.6c0,2.5,2,4.4,4.4,4.4c2.1,0,4-1.5,4.4-3.7l6.4-17.2v0.1l-7.7,30.2c-0.6,2.3,0.9,4.2,3.3,4.2
	h4.4l0,20.4c0,2.5,1.9,4.5,4.3,4.5c1.6,0,2.7-0.9,3.7-2.2V81h2v22.2c1,1.5,2.5,2.6,4.3,2.6c2.4,0,4.7-2,4.7-4.4V81h4.3
	c2.4,0,4-1.9,3.4-4.2L126,46.5v0l6.3,17.2c0.4,2.1,2.2,3.6,4.3,3.6c2.5,0,4.4-2,4.4-4.4c0-0.2,0-0.4-0.1-0.6
	C141,62.1,141,61.9,141,61.7z"/>
</svg>
