<svg xmlns="http://www.w3.org/2000/svg" xmlns:xlink="http://www.w3.org/1999/xlink" version="1.1" x="0px" y="0px" viewBox="0 0 150 187.5" enable-background="new 0 0 150 150" xml:space="preserve"><path d="M26.571,76.182c3.312,0,6.009-2.692,6.009-6.009c0-3.312-2.697-6.01-6.009-6.01c-3.314,0-6.006,2.698-6.006,6.01  C20.565,73.489,23.257,76.182,26.571,76.182z M33.694,98.034c-3.009,0-5.456-2.45-5.456-5.461c0-0.129,0.006-0.253,0.015-0.37  c-0.028-0.304-0.015-0.389,0.044-0.683L30.887,78H18.838c-1.384,0-2.544,0.816-2.762,2.161l-5.073,14.55  c-0.024,0.117-0.013,0.188,0.017,0.296c-0.017,0.137-0.029,0.245-0.029,0.371c0,1.551,1.26,2.796,2.805,2.796  c1.355,0,2.71-0.974,2.957-2.32L21,84.979v0.067l-5.059,19.174c-0.377,1.479,0.367,2.78,1.893,2.78h2.759l-0.009,12.755  c0,1.549,1.351,2.759,2.897,2.759c1.037,0,1.519-0.612,2.519-1.451V107h1v13.81c1,0.978,1.479,1.659,2.617,1.659  c1.547,0,2.836-1.169,2.836-2.714L32.478,107h2.833c0.359,0,0.683-0.138,0.965-0.261l0.005-6.798l-0.582-2.273  C35.074,97.916,34.398,98.034,33.694,98.034z M50.968,98.562l0.792-3.123l-0.002-1.605c-0.309,0.051-0.625,0.078-0.945,0.078  c-3.252,0-5.898-2.649-5.898-5.905c0-0.149,0.008-0.293,0.018-0.428c-0.035-0.337-0.019-0.676,0.049-1l0.031-0.142L49.663,73H36.705  c-1.525,0-2.805,1.122-3.045,2.604l-3.043,16.151c-0.027,0.129-0.016,0.263,0.018,0.382c-0.018,0.151-0.033,0.298-0.033,0.437  c0,1.71,1.389,3.098,3.093,3.098c1.495,0,2.771-1.067,3.044-2.553l1.919-11.981l-0.027,38.238c0,1.706,1.689,3.092,3.395,3.092  c1.144,0,1.976-0.624,2.976-1.549v-20.804c0-0.394,0.106-0.713,0.5-0.713c0.395,0,0.5,0.319,0.5,0.713v20.524  c0,1.077,1.481,1.829,2.738,1.829c1.703,0,3.053-1.39,3.053-3.093l-0.022-16.414C50.86,101.735,50.565,100.139,50.968,98.562z   M45.189,71.439c3.65,0,6.625-2.968,6.625-6.625c0-3.65-2.975-6.624-6.625-6.624c-3.653,0-6.621,2.974-6.621,6.624  C38.568,68.472,41.536,71.439,45.189,71.439z M74.574,90.777c-3.452,0-6.261-2.811-6.261-6.265c0-0.162,0.009-0.316,0.021-0.464  c-0.038-0.339-0.023-0.468,0.042-0.8L71.669,66H57.167c-1.744,0-3.206,1.1-3.479,2.795l-6.393,18.369  c-0.031,0.15-0.018,0.255,0.021,0.392c-0.021,0.174-0.038,0.317-0.038,0.477c0,1.954,1.588,3.528,3.535,3.528  c1.709,0,3.469-1.225,3.78-2.921L60,74.938v0.085l-6.429,24.318c-0.475,1.863,0.408,3.659,2.331,3.659h3.477l-0.012,15.917  c0,1.949,1.606,3.397,3.556,3.397c1.307,0,2.077-0.85,3.077-1.906V103h2v17.089c0,1.231,1.589,2.091,3.025,2.091  c1.947,0,3.438-1.317,3.438-3.263L74.355,103h3.57c0.178,0,0.351-0.208,0.516-0.235l0.008-11.708l-0.33-1.337  C77.104,90.42,75.88,90.777,74.574,90.777z M66.912,63.852c2.313,0,4.387-1.043,5.776-2.684c0.263-0.572,0.607-1.094,1.019-1.552  c0.497-1.007,0.777-2.14,0.777-3.337c0-4.173-3.399-7.572-7.572-7.572c-4.176,0-7.568,3.399-7.568,7.572  C59.344,60.459,62.736,63.852,66.912,63.852z M89.06,57.875c4.601,0,8.348-3.739,8.348-8.348c0-4.6-3.747-8.348-8.348-8.348  c-4.604,0-8.344,3.748-8.344,8.348C80.716,54.136,84.455,57.875,89.06,57.875z M96.982,92.226l0.338-1.33l-0.004-5.294  c-0.364,0.062-0.737,0.095-1.116,0.095c-3.753,0-6.805-3.056-6.805-6.813c0-0.19,0.011-0.371,0.025-0.543  c-0.045-0.377-0.029-0.755,0.046-1.116l0.031-0.103L95.442,60H78.367c-1.922,0-3.533,1.335-3.836,3.203l-3.836,20.313  c-0.034,0.164-0.019,0.312,0.023,0.463c-0.023,0.19-0.042,0.364-0.042,0.54c0,2.154,1.75,3.897,3.897,3.897  c1.884,0,3.492-1.347,3.836-3.218l2.418-15.1l-0.035,48.184c0,2.15,1.72,3.896,3.867,3.896c1.441,0,3.34-0.787,3.34-1.952V94.012  c0-0.496,0.504-0.899,1-0.899s1,0.403,1,0.899v25.862c1,1.357,1.907,2.305,3.489,2.305c2.148,0,3.87-1.751,3.87-3.896l-0.026-22.005  C96.759,95.064,96.621,93.642,96.982,92.226z M116.43,48.529c5.244,0,9.515-4.263,9.515-9.515c0-5.243-4.271-9.515-9.515-9.515  c-5.247,0-9.509,4.271-9.509,9.515C106.921,44.267,111.183,48.529,116.43,48.529z M140.965,77.727l-8.027-23.07  C132.59,52.497,130.752,51,128.561,51h-24.376c-2.19,0-4.026,1.497-4.372,3.626l-8.032,23.14c-0.039,0.188-0.021,0.35,0.026,0.521  c-0.026,0.218-0.048,0.413-0.048,0.612c0,2.456,1.995,4.441,4.441,4.441c2.147,0,3.986-1.535,4.377-3.668L107,62.458v0.107  l-7.706,30.197c-0.597,2.34,0.887,4.237,3.303,4.237h4.368l-0.016,20.359c0,2.451,1.878,4.451,4.326,4.451  c1.643,0,2.725-0.889,3.725-2.217V97h2v22.193c1,1.547,2.503,2.627,4.308,2.627c2.447,0,4.692-1.967,4.692-4.413V97h4.27  c2.416,0,4.02-1.896,3.416-4.235L126,62.486v-0.027l6.3,17.23c0.388,2.112,2.153,3.646,4.296,3.646c2.453,0,4.423-1.991,4.423-4.446  c0-0.2-0.035-0.405-0.065-0.622C141.007,78.095,141.001,77.913,140.965,77.727z"/><text x="0" y="165" fill="#000000" font-size="5px" font-weight="bold" font-family="'Helvetica Neue', Helvetica, Arial-Unicode, Arial, Sans-serif">Created by Deepak M</text><text x="0" y="170" fill="#000000" font-size="5px" font-weight="bold" font-family="'Helvetica Neue', Helvetica, Arial-Unicode, Arial, Sans-serif">from the Noun Project</text></svg>