<svg xmlns="http://www.w3.org/2000/svg" xmlns:xlink="http://www.w3.org/1999/xlink" version="1.1" x="0px" y="0px" viewBox="0 0 50 62.5" enable-background="new 0 0 50 50" xml:space="preserve"><g><path d="M5.881,47.159h17.655l-8.187-13.877c-2.704,0.442-5.025,1.224-6.678,2.613c-1.749,1.468-2.791,3.713-2.791,7.107V47.159z    M41.329,35.894c-1.651-1.388-3.972-2.17-6.677-2.613l-8.187,13.877H44.12v-4.158C44.12,39.607,43.078,37.363,41.329,35.894z    M21.574,31.848v5.29L25,35.126l3.426,2.013v-5.29L25,33.819L21.574,31.848z M33.615,25.473c-2.404,3.095-5.692,5.036-8.615,5.036   c-2.923,0-6.211-1.941-8.615-5.036c-2.09-2.688-3.555-6.276-3.555-10.219c0-4.05,0.436-7.749,2.143-10.526   C16.77,1.808,19.835,0,25,0c5.166,0,8.23,1.808,10.027,4.729c1.708,2.777,2.143,6.475,2.143,10.526   C37.17,19.197,35.704,22.785,33.615,25.473z M34.071,10.801c-0.245-1.767-0.692-3.333-1.462-4.585   C31.327,4.132,29.015,2.84,25,2.84c-4.015,0-6.328,1.291-7.609,3.375c-0.928,1.509-1.388,3.472-1.588,5.695l12.83-5.456   L34.071,10.801z M25,27.668c2.06,0,4.493-1.518,6.374-3.938c2.107-2.711,3-5.702,2.952-9.109l-6.132-4.9l-12.523,5.325   c0,3.2,0.988,6.153,2.955,8.684C20.507,26.151,22.94,27.668,25,27.668z M43.15,33.72c2.389,2.006,3.811,4.949,3.811,9.282V50   c-14.64,0-29.28,0-43.921,0v-6.999c0-4.333,1.424-7.276,3.811-9.282c2.82-2.367,6.443-3.036,9.98-3.504L25,44.061l8.169-13.846   C36.707,30.684,40.329,31.352,43.15,33.72z"/></g><text x="0" y="65" fill="#000000" font-size="5px" font-weight="bold" font-family="'Helvetica Neue', Helvetica, Arial-Unicode, Arial, Sans-serif">Created by Georgiana Ionescu</text><text x="0" y="70" fill="#000000" font-size="5px" font-weight="bold" font-family="'Helvetica Neue', Helvetica, Arial-Unicode, Arial, Sans-serif">from the Noun Project</text></svg>