<svg xmlns="http://www.w3.org/2000/svg" xmlns:xlink="http://www.w3.org/1999/xlink" version="1.1" x="0px" y="0px" viewBox="0 0 100 125" style="enable-background:new 0 0 100 100;" xml:space="preserve"><path d="M80.1862,69.32755H21.07222c-0.59752,0-1.08193,0.48442-1.08193,1.08184v0.00009c0,1.4738,1.19485,2.66866,2.66874,2.66866  H78.5994c1.4739,0,2.66874-1.19485,2.66874-2.66866v-0.00009C81.26814,69.81197,80.78372,69.32755,80.1862,69.32755z"/><path d="M49.89427,74.51841c2.10776,0,4.21553,0.00027,6.32329-0.00027c0.36522-0.00009,0.72471,0.01211,1.07314,0.15372  c0.75136,0.30536,1.23502,0.98607,1.2157,1.73946c-0.01926,0.75088-0.45002,1.26271-1.35041,1.49148  c-2.09132,0.53136-4.19139,1.02818-6.28459,1.55226c-0.90761,0.22724-1.80778,0.48449-2.7099,0.73333  c-0.4868,0.13428-0.91809,0.38775-0.84632,0.95265c0.07025,0.553,0.50108,0.83011,1.04593,0.88362  c2.53807,0.24924,5.08363,0.30045,7.63248,0.33361c1.77201,0.02305,3.40891-0.30214,5.06107-1.00724  c4.13734-1.76572,8.34176-3.37458,12.5245-5.0332c0.74371-0.29491,1.48622-0.64066,2.33415-0.46467  c0.62907,0.13056,1.16254,0.39169,1.28989,1.07365c0.12585,0.6739-0.01789,1.29411-0.61613,1.73314  c-0.69205,0.50789-1.36363,1.04595-2.07544,1.52428c-4.79438,3.22169-9.60258,6.42286-14.39062,9.65393  c-0.65327,0.44083-1.36027,0.49753-2.08155,0.51365c-3.51038,0.07846-7.02184,0.11163-10.53185,0.20208  c-2.75507,0.07098-5.51313,0.13798-8.26099,0.33212c-1.4994,0.10593-2.94973,0.60201-4.40162,1.01052  c-1.09595,0.30836-1.11001,0.30684-1.32122-0.78384c-0.74114-3.82727-1.46554-7.65781-2.21593-11.48325  c-0.1031-0.52557,0.0246-0.82474,0.5284-1.03523c2.90347-1.21311,5.77662-2.49881,8.75145-3.53761  c1.02319-0.35729,2.07346-0.4985,3.1396-0.51208c2.05534-0.02621,4.11126-0.00764,6.16693-0.00764  C49.89426,74.5307,49.89426,74.52456,49.89427,74.51841z"/><path d="M18.74392,88.31048c-0.00095-3.07011,0.01259-6.14034-0.01196-9.21025c-0.00513-0.64211,0.18977-0.91724,0.85731-1.00298  c2.42113-0.31095,4.83544-0.67599,7.25004-1.03589c0.52143-0.07772,0.80296,0.02573,0.93117,0.61365  c1.20712,5.5354,2.44115,11.06496,3.67497,16.59451c0.10171,0.4558,0.03245,0.706-0.48789,0.84377  c-3.81979,1.01136-7.63368,2.04536-11.44318,3.09492c-0.60844,0.16763-0.78127-0.00444-0.77778-0.60937  C18.75448,94.5028,18.74487,91.40661,18.74392,88.31048z M25.67456,93.85477c0.95224-0.01255,1.7913-0.86308,1.78493-1.80933  c-0.00642-0.95431-0.85437-1.78816-1.80844-1.77837c-0.96599,0.0099-1.78852,0.84378-1.77937,1.80389  C23.88083,93.03071,24.72633,93.86726,25.67456,93.85477z"/><path d="M61.67799,1.7311h2.10094c0.5117,0,0.92699,0.41529,0.92699,0.927v0.33965h-3.95494V2.6581  C60.75099,2.14566,61.16628,1.7311,61.67799,1.7311z"/><path d="M59.44578,3.73935h6.5661c0.30257,0,0.54878,0.24547,0.54878,0.54878V7.1774c0,0.30257-0.24547,0.54878-0.54878,0.54878  h-6.5661c-0.30257,0-0.54879-0.24547-0.54879-0.54878V4.28813C58.89699,3.98482,59.14246,3.73935,59.44578,3.73935z"/><path d="M57.88546,21.80022c0.9003-0.41233,1.50618-1.27703,1.50618-2.26781V9.39403c0-0.5117,0.41529-0.927,0.92699-0.927h4.82039  c0.5117,0,0.92699,0.41529,0.92699,0.927v10.13838c0,0.99003,0.60589,1.85548,1.50619,2.26781  c2.85589,1.30744,4.89009,4.523,4.89009,8.26585v36.89449c0,0.5117-0.41529,0.92699-0.92699,0.92699H53.92236  c-0.5117,0-0.927-0.41529-0.927-0.92699V30.06607C52.99536,26.32322,55.02956,23.10766,57.88546,21.80022z M68.25076,27.01958  c-0.29442-0.55916-0.68375-1.06642-1.12649-1.52324c-0.44792-0.45089-0.96481-0.84171-1.53584-1.12278  c-0.55917-0.30257-1.18804-0.46276-1.80876-0.51838c0.52654,0.35077,1.04121,0.64074,1.50396,1.0108  c0.46721,0.35522,0.91291,0.73047,1.31486,1.15318c0.83059,0.82317,1.53436,1.75981,2.24852,2.78025  C68.77285,28.17277,68.54592,27.57504,68.25076,27.01958z M56.61065,53.88989h12.23636V38.17766H56.61065V53.88989z"/><path d="M41.31504,2.30362h-2.5244c-0.61553,0-1.11388,0.44644-1.11388,0.99597v0.36487h4.75364V3.29959  C42.42966,2.74932,41.93056,2.30362,41.31504,2.30362z"/><path d="M43.75193,4.46093h-7.39744c-0.34113,0-0.61849,0.221-0.61849,0.4939v2.60004c0,0.27291,0.27662,0.4939,0.61849,0.4939  h7.39744c0.34113,0,0.61849-0.221,0.61849-0.4939v-2.5993C44.37042,4.68192,44.0938,4.46093,43.75193,4.46093z"/><path d="M50.50417,41.84784c-3.08208-8.81018-6.59132-20.9531-6.59132-29.38433V9.84048c0-0.55027-0.47981-0.99597-1.07161-0.99597  h-5.57533c-0.59254,0-1.07161,0.44644-1.07161,0.99597v2.62303c0,8.43196-3.36018,20.05651-6.59132,29.38433  c-0.43087,1.24514-0.80686,2.54739-0.80686,3.95716c0,6.47563,0,21.08659,0,21.08659c0,0.55026,0.47981,0.99596,1.07161,0.99596  h20.37095c0.59254,0,1.07161-0.44644,1.07161-0.99596V45.805C51.31029,44.39522,50.93875,43.09223,50.50417,41.84784z   M48.22227,63.6382H31.8834V51.15118h3.55893c0-2.54665,2.06387-4.61052,4.61052-4.61052c2.54665,0,4.61051,2.06386,4.61051,4.61052  h3.55893V63.6382z"/><text x="0" y="115" fill="#000000" font-size="5px" font-weight="bold" font-family="'Helvetica Neue', Helvetica, Arial-Unicode, Arial, Sans-serif">Created by Kristina Margaryan</text><text x="0" y="120" fill="#000000" font-size="5px" font-weight="bold" font-family="'Helvetica Neue', Helvetica, Arial-Unicode, Arial, Sans-serif">from the Noun Project</text></svg>